<mxfile host="app.diagrams.net" modified="2024-06-20T11:26:17.147Z" agent="Mozilla/5.0 (X11; Ubuntu; Linux x86_64; rv:127.0) Gecko/20100101 Firefox/127.0" etag="nGtxVqhcVgKBg8BfEWsD" version="24.4.13" type="device">
  <diagram name="Seite-1" id="grgdsM75gmRHkkBOok7w">
    <mxGraphModel dx="1354" dy="1051" grid="1" gridSize="10" guides="1" tooltips="1" connect="1" arrows="1" fold="1" page="1" pageScale="1" pageWidth="1169" pageHeight="1654" math="0" shadow="0">
      <root>
        <mxCell id="0" />
        <mxCell id="1" parent="0" />
        <mxCell id="BZjcEhGuLW8aBq4DadZO-21" style="rounded=0;orthogonalLoop=1;jettySize=auto;html=1;entryX=0.5;entryY=1;entryDx=0;entryDy=0;endArrow=block;endFill=0;" edge="1" parent="1" source="BZjcEhGuLW8aBq4DadZO-1" target="BZjcEhGuLW8aBq4DadZO-18">
          <mxGeometry relative="1" as="geometry" />
        </mxCell>
        <mxCell id="BZjcEhGuLW8aBq4DadZO-1" value="&amp;lt;&amp;lt;individual&amp;gt;&amp;gt;&lt;br&gt;NLP" style="rounded=1;whiteSpace=wrap;html=1;" vertex="1" parent="1">
          <mxGeometry x="430" y="380" width="120" height="60" as="geometry" />
        </mxCell>
        <mxCell id="BZjcEhGuLW8aBq4DadZO-3" style="rounded=0;orthogonalLoop=1;jettySize=auto;html=1;entryX=0;entryY=0.5;entryDx=0;entryDy=0;" edge="1" parent="1" source="BZjcEhGuLW8aBq4DadZO-2" target="BZjcEhGuLW8aBq4DadZO-1">
          <mxGeometry relative="1" as="geometry" />
        </mxCell>
        <mxCell id="BZjcEhGuLW8aBq4DadZO-2" value="&amp;lt;&amp;lt;individual&amp;gt;&amp;gt;&lt;br&gt;0&lt;br&gt;word, embed, semant" style="rounded=1;whiteSpace=wrap;html=1;" vertex="1" parent="1">
          <mxGeometry x="140" y="410" width="170" height="50" as="geometry" />
        </mxCell>
        <mxCell id="BZjcEhGuLW8aBq4DadZO-5" style="rounded=0;orthogonalLoop=1;jettySize=auto;html=1;entryX=0.25;entryY=1;entryDx=0;entryDy=0;" edge="1" parent="1" source="BZjcEhGuLW8aBq4DadZO-4" target="BZjcEhGuLW8aBq4DadZO-1">
          <mxGeometry relative="1" as="geometry" />
        </mxCell>
        <mxCell id="BZjcEhGuLW8aBq4DadZO-4" value="&amp;lt;&amp;lt;individual&amp;gt;&amp;gt;&lt;br&gt;1&lt;br&gt;gener, question, llm" style="rounded=1;whiteSpace=wrap;html=1;" vertex="1" parent="1">
          <mxGeometry x="260" y="580" width="170" height="50" as="geometry" />
        </mxCell>
        <mxCell id="BZjcEhGuLW8aBq4DadZO-7" style="rounded=0;orthogonalLoop=1;jettySize=auto;html=1;entryX=1;entryY=0.75;entryDx=0;entryDy=0;" edge="1" parent="1" source="BZjcEhGuLW8aBq4DadZO-6" target="BZjcEhGuLW8aBq4DadZO-1">
          <mxGeometry relative="1" as="geometry" />
        </mxCell>
        <mxCell id="BZjcEhGuLW8aBq4DadZO-6" value="&amp;lt;&amp;lt;individual&amp;gt;&amp;gt;&lt;br&gt;2&lt;br&gt;data, train, learn&quot;" style="rounded=1;whiteSpace=wrap;html=1;" vertex="1" parent="1">
          <mxGeometry x="630" y="600" width="170" height="50" as="geometry" />
        </mxCell>
        <mxCell id="BZjcEhGuLW8aBq4DadZO-9" style="rounded=0;orthogonalLoop=1;jettySize=auto;html=1;entryX=1;entryY=0.25;entryDx=0;entryDy=0;" edge="1" parent="1" source="BZjcEhGuLW8aBq4DadZO-8" target="BZjcEhGuLW8aBq4DadZO-1">
          <mxGeometry relative="1" as="geometry" />
        </mxCell>
        <mxCell id="BZjcEhGuLW8aBq4DadZO-8" value="&amp;lt;&amp;lt;individual&amp;gt;&amp;gt;&lt;br&gt;3&lt;br&gt;inform, entiti, extract" style="rounded=1;whiteSpace=wrap;html=1;" vertex="1" parent="1">
          <mxGeometry x="790" y="430" width="210" height="50" as="geometry" />
        </mxCell>
        <mxCell id="BZjcEhGuLW8aBq4DadZO-11" style="rounded=0;orthogonalLoop=1;jettySize=auto;html=1;entryX=0;entryY=0.75;entryDx=0;entryDy=0;" edge="1" parent="1" source="BZjcEhGuLW8aBq4DadZO-10" target="BZjcEhGuLW8aBq4DadZO-1">
          <mxGeometry relative="1" as="geometry">
            <mxPoint x="420" y="440" as="targetPoint" />
          </mxGeometry>
        </mxCell>
        <mxCell id="BZjcEhGuLW8aBq4DadZO-10" value="&lt;pre&gt;&amp;lt;&amp;lt;individual&amp;gt;&amp;gt;&lt;br&gt;4&lt;br&gt;translat, speech, neural&lt;/pre&gt;" style="rounded=1;whiteSpace=wrap;html=1;" vertex="1" parent="1">
          <mxGeometry x="40" y="610" width="190" height="50" as="geometry" />
        </mxCell>
        <mxCell id="BZjcEhGuLW8aBq4DadZO-13" style="rounded=0;orthogonalLoop=1;jettySize=auto;html=1;entryX=0.5;entryY=1;entryDx=0;entryDy=0;" edge="1" parent="1" source="BZjcEhGuLW8aBq4DadZO-12" target="BZjcEhGuLW8aBq4DadZO-1">
          <mxGeometry relative="1" as="geometry" />
        </mxCell>
        <mxCell id="BZjcEhGuLW8aBq4DadZO-12" value="&amp;lt;&amp;lt;individual&amp;gt;&amp;gt;&lt;br&gt;5&lt;br&gt;train, task, perform" style="rounded=1;whiteSpace=wrap;html=1;" vertex="1" parent="1">
          <mxGeometry x="310" y="720" width="190" height="50" as="geometry" />
        </mxCell>
        <mxCell id="BZjcEhGuLW8aBq4DadZO-15" style="rounded=0;orthogonalLoop=1;jettySize=auto;html=1;entryX=0.75;entryY=1;entryDx=0;entryDy=0;" edge="1" parent="1" source="BZjcEhGuLW8aBq4DadZO-14" target="BZjcEhGuLW8aBq4DadZO-1">
          <mxGeometry relative="1" as="geometry" />
        </mxCell>
        <mxCell id="BZjcEhGuLW8aBq4DadZO-14" value="&amp;lt;&amp;lt;individual&amp;gt;&amp;gt;&lt;br&gt;6&lt;br&gt;user, dialogu, convers" style="rounded=1;whiteSpace=wrap;html=1;" vertex="1" parent="1">
          <mxGeometry x="520" y="720" width="190" height="50" as="geometry" />
        </mxCell>
        <mxCell id="BZjcEhGuLW8aBq4DadZO-16" value="&amp;lt;&amp;lt;individual&amp;gt;&amp;gt;&lt;br&gt;7&lt;br&gt;dataset, detect, text" style="rounded=1;whiteSpace=wrap;html=1;" vertex="1" parent="1">
          <mxGeometry x="840" y="580" width="170" height="50" as="geometry" />
        </mxCell>
        <mxCell id="BZjcEhGuLW8aBq4DadZO-17" style="rounded=0;orthogonalLoop=1;jettySize=auto;html=1;entryX=1;entryY=0.617;entryDx=0;entryDy=0;entryPerimeter=0;" edge="1" parent="1" source="BZjcEhGuLW8aBq4DadZO-16" target="BZjcEhGuLW8aBq4DadZO-1">
          <mxGeometry relative="1" as="geometry" />
        </mxCell>
        <mxCell id="BZjcEhGuLW8aBq4DadZO-18" value="&lt;div&gt;&amp;lt;&amp;lt;class&amp;gt;&amp;gt;&lt;/div&gt;&lt;div&gt;Topic&lt;br&gt;&lt;/div&gt;" style="ellipse;whiteSpace=wrap;html=1;aspect=fixed;" vertex="1" parent="1">
          <mxGeometry x="450" y="120" width="80" height="80" as="geometry" />
        </mxCell>
        <mxCell id="BZjcEhGuLW8aBq4DadZO-20" style="edgeStyle=orthogonalEdgeStyle;rounded=0;orthogonalLoop=1;jettySize=auto;html=1;" edge="1" parent="1" source="BZjcEhGuLW8aBq4DadZO-18" target="BZjcEhGuLW8aBq4DadZO-18">
          <mxGeometry relative="1" as="geometry" />
        </mxCell>
      </root>
    </mxGraphModel>
  </diagram>
</mxfile>
